<?xml version="1.0" encoding="UTF-8"?>
<svg id="poski-real-white" xmlns="http://www.w3.org/2000/svg" viewBox="0 0 292.3 114.79">
  <defs>
    <style>
      .cls-1, .cls-2 {
        fill: #fff;
      }

      .cls-2 {
        fill-rule: evenodd;
      }
    </style>
  </defs>
  <g>
    <g>
      <path class="cls-1" d="M1.05,109.99c.58.29,1.51.59,2.45.59.87,0,1.29-.29,1.29-.77s-.42-.73-1.48-1.09c-1.6-.56-2.65-1.44-2.65-2.84,0-1.67,1.4-2.96,3.78-2.96,1.13,0,1.93.21,2.56.49l-.53,2.02c-.41-.18-1.11-.45-2.06-.45-.77,0-1.19.28-1.19.7,0,.48.5.67,1.69,1.12,1.7.62,2.47,1.53,2.47,2.84,0,1.62-1.27,3.01-4.03,3.01-1.13,0-2.24-.29-2.77-.57l.48-2.09Z"/>
      <path class="cls-1" d="M19.57,107.69c0,3.04-1.82,4.97-4.73,4.97s-4.54-2.2-4.54-4.82,1.81-4.93,4.69-4.93c3.04,0,4.58,2.26,4.58,4.78ZM12.98,107.8c0,1.77.77,2.86,1.99,2.86s1.93-1.19,1.93-2.89-.73-2.86-1.95-2.86-1.98,1.15-1.98,2.89Z"/>
      <path class="cls-1" d="M22.87,103.07h6.07v2.06h-3.53v1.75h3.32v2.04h-3.32v3.59h-2.54v-9.44Z"/>
      <path class="cls-1" d="M34.3,105.19h-2.41v-2.11h7.4v2.11h-2.45v7.33h-2.54v-7.33Z"/>
      <path class="cls-1" d="M44.24,112.51l-2.17-9.44h2.72l.55,3.5c.17,1.09.34,2.35.49,3.32h.03c.14-1.06.34-2.2.55-3.35l.6-3.47h2.7l.59,3.64c.17,1.08.29,2.05.42,3.11h.03c.14-1.05.31-2.17.48-3.28l.56-3.47h2.56l-2.33,9.44h-2.76l-.63-3.7c-.14-.83-.27-1.71-.39-2.83h-.03c-.15,1.12-.28,2-.45,2.84l-.71,3.68h-2.8Z"/>
      <path class="cls-1" d="M59.12,110.33l-.53,2.19h-2.62l2.75-9.44h3.36l2.82,9.44h-2.73l-.6-2.19h-2.44ZM61.21,108.45l-.43-1.7c-.14-.53-.32-1.3-.46-1.86h-.03c-.14.56-.28,1.34-.42,1.88l-.41,1.68h1.75Z"/>
      <path class="cls-1" d="M68.05,103.2c.71-.11,1.79-.2,3.05-.2,1.44,0,2.48.2,3.19.73.6.46.94,1.13.94,2.06,0,1.18-.88,2.02-1.62,2.28v.06c.63.27.97.87,1.2,1.68.29.97.6,2.34.79,2.7h-2.59c-.14-.28-.38-1.01-.66-2.17-.25-1.13-.6-1.37-1.39-1.37h-.41v3.54h-2.51v-9.31ZM70.56,107.16h.66c.95,0,1.5-.48,1.5-1.18s-.46-1.11-1.3-1.12c-.48,0-.73.03-.85.06v2.24Z"/>
      <path class="cls-1" d="M84.58,108.7h-3.39v1.74h3.8v2.07h-6.33v-9.44h6.14v2.06h-3.6v1.53h3.39v2.04Z"/>
    </g>
    <path class="cls-1" d="M103.61,100.79v14.01h-1.74v-14.01h1.74Z"/>
    <path class="cls-1" d="M181.41,100.79v14.01h-1.74v-14.01h1.74Z"/>
    <g>
      <path class="cls-1" d="M122.35,112.5l-2.17-9.44h2.72l.55,3.5c.17,1.09.34,2.35.49,3.32h.03c.14-1.06.34-2.2.55-3.35l.6-3.47h2.7l.59,3.64c.17,1.08.29,2.05.42,3.11h.03c.14-1.05.31-2.17.48-3.28l.56-3.47h2.56l-2.33,9.44h-2.76l-.63-3.7c-.14-.83-.27-1.71-.39-2.83h-.03c-.15,1.12-.28,2-.45,2.84l-.71,3.68h-2.8Z"/>
      <path class="cls-1" d="M141.41,108.69h-3.39v1.74h3.8v2.07h-6.33v-9.44h6.14v2.06h-3.6v1.53h3.39v2.04Z"/>
      <path class="cls-1" d="M145.17,103.18c.57-.1,1.82-.2,2.98-.2,1.34,0,2.14.08,2.88.46.73.34,1.28,1.02,1.28,1.93,0,.8-.43,1.57-1.54,1.99v.03c1.16.32,1.85,1.18,1.85,2.3,0,.88-.42,1.58-1.05,2.06-.71.53-1.89.84-3.91.84-1.15,0-1.97-.07-2.49-.15v-9.26ZM147.68,106.68h.5c1.08,0,1.6-.38,1.6-.98,0-.56-.42-.91-1.27-.91-.42,0-.66.03-.83.06v1.83ZM147.68,110.72c.18.03.41.03.73.03.84,0,1.55-.34,1.55-1.16s-.73-1.11-1.68-1.11h-.6v2.24Z"/>
      <path class="cls-1" d="M157.59,112.5v-3.81l-2.98-5.63h2.9l.8,2.13c.27.66.43,1.13.64,1.74h.03c.18-.57.38-1.09.6-1.74l.79-2.13h2.84l-3.1,5.53v3.91h-2.52Z"/>
    </g>
    <g>
      <path class="cls-1" d="M206.63,109.14c-.03-1.08-.06-2.34-.04-3.81h-.04c-.29,1.25-.69,2.66-.99,3.7l-.94,3.29h-1.98l-.8-3.28c-.24-1.02-.53-2.42-.74-3.71h-.03c-.06,1.33-.11,2.73-.15,3.81l-.14,3.38h-2.33l.58-9.44h3.4l.63,2.54c.25,1.05.53,2.31.73,3.46h.06c.27-1.15.57-2.48.85-3.47l.7-2.52h3.33l.48,9.44h-2.46l-.11-3.38Z"/>
      <path class="cls-1" d="M215.19,110.33l-.53,2.19h-2.62l2.75-9.44h3.36l2.82,9.44h-2.73l-.6-2.19h-2.44ZM217.28,108.45l-.43-1.7c-.14-.53-.32-1.3-.46-1.86h-.03c-.14.56-.28,1.34-.42,1.88l-.41,1.68h1.75Z"/>
      <path class="cls-1" d="M224.12,103.2c.71-.11,1.79-.2,3.05-.2,1.44,0,2.48.2,3.19.73.6.46.94,1.13.94,2.06,0,1.18-.88,2.02-1.62,2.28v.06c.63.27.97.87,1.2,1.68.29.97.6,2.34.79,2.7h-2.59c-.14-.28-.38-1.01-.66-2.17-.25-1.13-.6-1.37-1.39-1.37h-.41v3.54h-2.51v-9.31ZM226.63,107.16h.66c.95,0,1.5-.48,1.5-1.18s-.46-1.11-1.3-1.12c-.48,0-.73.03-.85.06v2.24Z"/>
      <path class="cls-1" d="M234.72,103.07h2.51v4.01h.03c.2-.35.41-.7.62-1.04l1.81-2.97h3.11l-3,4.02,3.11,5.42h-2.93l-1.99-3.82-.76.97v2.86h-2.51v-9.44Z"/>
      <path class="cls-1" d="M251.65,108.7h-3.39v1.74h3.8v2.07h-6.33v-9.44h6.14v2.06h-3.6v1.53h3.39v2.04Z"/>
      <path class="cls-1" d="M257.25,105.19h-2.41v-2.11h7.4v2.11h-2.45v7.33h-2.54v-7.33Z"/>
      <path class="cls-1" d="M267.89,103.07v9.44h-2.54v-9.44h2.54Z"/>
      <path class="cls-1" d="M271.58,112.51v-9.44h2.98l1.5,2.9c.52.94,1.06,2.2,1.49,3.31h.04c-.14-1.25-.2-2.56-.2-3.98v-2.23h2.31v9.44h-2.66l-1.6-3.14c-.53-1.01-1.15-2.27-1.6-3.42h-.04c.06,1.27.08,2.7.08,4.23v2.33h-2.31Z"/>
      <path class="cls-1" d="M291.59,112.06c-.7.24-2.02.55-3.25.55-1.86,0-3.12-.46-3.98-1.27-.88-.84-1.34-2.06-1.34-3.42.01-3.28,2.45-4.94,5.52-4.94,1.27,0,2.24.22,2.73.46l-.5,2.02c-.53-.22-1.16-.39-2.24-.39-1.55,0-2.84.81-2.84,2.73,0,1.77,1.13,2.79,2.69,2.79.34,0,.67-.04.78-.08v-1.62h-1.26v-1.96h3.7v5.15Z"/>
    </g>
  </g>
  <g>
    <path class="cls-2" d="M95.11,60.22c0-14.29-6.38-27.1-16.45-35.77.03-.26.08-.52.08-.79V6.93c0-3.3-2.68-5.97-5.98-5.97s-5.97,2.68-5.97,5.97v10.02c-5.88-2.59-12.39-4.04-19.24-4.04C21.29,12.9,0,34.08,0,60.22c0,8.92,2.48,17.26,6.8,24.39-.85-3.75-1.3-7.67-1.3-11.72,0-26.13,18.83-47.31,42.06-47.31s42.06,21.18,42.06,47.31c0,4.04-.45,7.97-1.3,11.72,4.31-7.12,6.8-15.46,6.8-24.39Z"/>
    <path class="cls-1" d="M115.38,36.04c4.46-.58,10.72-1.02,17.54-1.02,8.63,0,15.17,1.02,19.54,3.79,3.89,2.48,5.69,5.91,5.69,10.36,0,5.98-5.03,10.43-10.91,12.18v.22c4.46,1.39,6.83,4.6,8.35,9.34,1.8,5.47,3.6,11.74,4.84,13.64h-14.22c-.95-1.39-2.47-5.62-4.08-11.53-1.52-6.13-4.08-7.81-9.39-7.81h-3.6v19.33h-13.75v-48.52ZM129.13,57.41h4.65c6.64,0,10.53-2.99,10.53-7.3,0-4.52-3.41-7-9.77-7.08-2.75,0-4.46.15-5.41.37v14.01Z"/>
    <path class="cls-1" d="M198.57,63.47h-20.86v12.26h23.33v8.83h-37.18v-49.17h35.85v8.83h-22v10.58h20.86v8.68Z"/>
    <path class="cls-1" d="M219.63,72.37l-3.98,12.18h-14.13l17.83-49.17h17.74l17.64,49.17h-14.51l-4.27-12.18h-16.31ZM234.05,64.35l-3.41-10.43c-.95-2.92-1.99-7-2.85-9.99h-.19c-.85,2.99-1.8,7.15-2.75,10.07l-3.41,10.36h12.61Z"/>
    <path class="cls-1" d="M255.79,35.38h13.85v40.2h22.67v8.97h-36.51v-49.17Z"/>
    <g>
      <path class="cls-1" d="M44.77,58.63v-18.08h-9.92c-4.51,0-8.16,3.79-8.16,8.46v9.62h18.07Z"/>
      <path class="cls-1" d="M48.79,58.63h18.08v-9.62c0-4.67-3.65-8.46-8.16-8.46h-9.92v18.08Z"/>
      <path class="cls-1" d="M48.79,62.64v18.08h9.92c4.5,0,8.16-3.79,8.16-8.46v-9.62h-18.08Z"/>
      <path class="cls-1" d="M44.77,62.64h-18.07v9.62c0,4.67,3.65,8.46,8.16,8.46h9.92v-18.08Z"/>
    </g>
    <path class="cls-1" d="M184.03,2.37c0-1.58.88-2.37,2.64-2.37s2.64.79,2.64,2.37c0,.75-.22,1.34-.66,1.76-.44.42-1.1.63-1.98.63-1.76,0-2.64-.79-2.64-2.39ZM189.08,24.74h-4.85V6.96h4.85v17.77Z"/>
    <polygon class="cls-1" points="170.59 8.51 170.59 0 165.75 0 165.75 13.78 170.59 8.51"/>
    <polygon class="cls-1" points="175.9 14.67 182.96 6.96 177.49 6.96 165.75 19.72 165.75 24.74 170.59 24.74 170.59 20.44 172.93 17.9 177.79 24.74 183.39 24.74 175.9 14.67"/>
    <path class="cls-1" d="M163.86,19.46c0,1.82-.64,3.21-1.9,4.17-1.27.95-3.16,1.43-5.68,1.43-1.29,0-2.4-.09-3.31-.26-.91-.17-1.76-.43-2.56-.77v-4.01c.9.42,1.92.78,3.05,1.06,1.13.29,2.12.43,2.98.43,1.76,0,2.64-.51,2.64-1.52,0-.38-.12-.69-.35-.93-.23-.24-.64-.51-1.21-.81-.57-.3-1.34-.65-2.29-1.06-1.37-.57-2.37-1.1-3.01-1.59-.64-.49-1.11-1.05-1.4-1.68-.29-.63-.44-1.41-.44-2.33,0-1.58.61-2.8,1.83-3.66,1.22-.86,2.96-1.3,5.21-1.3s4.22.47,6.25,1.4l-1.46,3.5c-.89-.38-1.72-.69-2.5-.94-.77-.24-1.56-.37-2.37-.37-1.43,0-2.15.39-2.15,1.16,0,.43.23.81.69,1.13.46.32,1.47.79,3.03,1.41,1.39.56,2.4,1.09,3.05,1.57.64.49,1.12,1.05,1.43,1.68.31.64.46,1.39.46,2.27Z"/>
    <path class="cls-1" d="M149.33,15.82c0,2.89-.76,5.15-2.29,6.79-1.52,1.63-3.65,2.45-6.37,2.45-1.71,0-3.21-.37-4.52-1.12-1.3-.75-2.3-1.82-3.01-3.22-.7-1.4-1.05-3.03-1.05-4.9,0-2.9.76-5.16,2.27-6.77,1.52-1.61,3.65-2.41,6.39-2.41,1.71,0,3.21.37,4.52,1.11,1.3.74,2.3,1.81,3,3.2.7,1.39,1.05,3.02,1.05,4.88ZM137.05,15.82c0,1.76.29,3.09.86,3.99.58.9,1.52,1.35,2.82,1.35s2.23-.45,2.79-1.34c.57-.89.85-2.23.85-4s-.29-3.08-.86-3.96c-.57-.88-1.51-1.32-2.81-1.32s-2.22.44-2.8,1.31c-.57.87-.86,2.2-.86,3.97Z"/>
    <path class="cls-1" d="M131.67,8.74c0,2.5-.78,4.41-2.35,5.74-1.56,1.32-3.79,1.99-6.67,1.99h-2.12v8.27h-4.93V1.49h7.42c2.82,0,4.96.61,6.43,1.82,1.47,1.21,2.2,3.02,2.2,5.43ZM120.54,12.43h1.62c1.52,0,2.65-.3,3.4-.9.75-.6,1.13-1.47,1.13-2.62s-.32-2.01-.95-2.56c-.63-.55-1.62-.83-2.97-.83h-2.24v6.9Z"/>
  </g>
</svg>